<svg version="1.0" xmlns="http://www.w3.org/2000/svg" width="128.000000pt" height="128.000000pt" viewBox="0 0 128.000000 128.000000" preserveAspectRatio="xMidYMid meet" id="1932801190" class="svg u_1932801190" alt="generative AI" data-icon-custom="true" data-icon-name="Screenshot 2024-02-22 at 11.31.35.svg"> <metadata>Created by potrace 1.16, written by Peter Selinger 2001-2019</metadata> 
 <g transform="translate(0.000000,128.000000) scale(0.100000,-0.100000)" fill="#000000" stroke="none"> <path fill="#000000" stroke="none" d="M264 1230 c-29 -11 -74 -67 -75 -93 -6
-99 -10 -124 -27 -147 -39 -52 -55 -96 -56 -150 0 -30 3 -61 7 -67 6 -10 54
-13 181 -13 l172 0 2 -67 c1 -38 2 -81 3 -98 1 -16 -2 -43 -6 -58 l-8 -29 33
17 c29 15 35 15 65 1 42 -20 111 -20 148 -1 25 13 32 13 57 0 36 -18 46 -5 27
32 -13 23 -13 33 -1 66 8 22 14 51 14 66 0 37 -44 125 -71 145 -63 44 -150 40
-203 -9 -15 -14 -28 -25 -29 -25 -1 0 -3 23 -4 50 -3 51 -20 95 -54 139 -13
17 -19 41 -19 80 -1 77 -29 137 -74 156 -40 17 -52 17 -82 5z"></path> 
 <path fill="#31bbfe" stroke="none" d="M334 1103 c40 -6 44 -18 21 -63 -28
-54 -87 -51 -111 6 -13 30 -11 71 3 97 3 5 15 -1 28 -13 12 -11 39 -23 59 -27z"></path> 
 <path fill="#31bbfe" stroke="none" d="M234 933 c8 -16 26 -39 41 -53 l27 -25
26 30 c15 17 35 41 44 55 l17 25 25 -27 c24 -27 43 -98 31 -118 -4 -6 -62 -10
-151 -10 l-144 0 0 29 c0 36 16 80 37 103 22 24 30 23 47 -9z"></path> 
 <path fill="#31bbfe" stroke="none" d="M320 944 c0 -6 -6 -17 -14 -23 -11 -9
-15 -8 -20 5 -10 26 -7 33 14 31 11 -1 20 -6 20 -13z"></path> 
 <path fill="#31bbfe" stroke="none" d="M658 784 c14 -9 22 -25 22 -42 -1 -27
-40 -82 -60 -82 -17 0 -11 29 10 50 11 11 20 27 20 36 0 13 -7 15 -35 10 -39
-8 -43 -2 -18 26 20 22 32 23 61 2z"></path> 
 <path fill="#31bbfe" stroke="none" d="M645 610 c0 -22 -29 -18 -33 3 -3 14 1
18 15 15 10 -2 18 -10 18 -18z"></path> 
 <path fill="#000000" stroke="none" d="M937 1183 c-4 -3 -7 -16 -7 -29 0 -31
-29 -39 -54 -15 l-22 20 -29 -23 c-29 -24 -30 -24 -11 -45 26 -29 15 -69 -22
-73 -24 -3 -27 -7 -27 -43 0 -36 3 -40 27 -43 33 -4 45 -35 27 -68 -10 -20
-10 -27 6 -44 22 -24 33 -25 56 -4 25 22 45 12 52 -25 6 -26 11 -31 37 -31 24
0 31 5 36 28 12 48 24 55 51 31 l23 -22 25 23 c23 22 24 25 9 41 -24 27 -14
63 19 67 25 3 27 7 27 48 0 40 -2 44 -25 44 -35 0 -52 35 -29 61 20 22 13 43
-20 63 -13 9 -20 7 -30 -7 -18 -24 -43 -12 -51 24 -5 23 -12 29 -34 29 -15 0
-31 -3 -34 -7z"></path> 
 <path fill="#31bbfe" stroke="none" d="M1019 1036 c60 -63 -7 -173 -84 -138
-56 26 -68 99 -24 143 27 27 80 25 108 -5z"></path> 
 <path fill="#000000" stroke="none" d="M930 1004 c-20 -24 -1 -69 29 -69 31 0
52 33 40 63 -10 26 -50 30 -69 6z"></path> 
 <path fill="#000000" stroke="none" d="M607 1164 c-14 -15 -6 -34 14 -34 14 0
19 5 17 17 -3 18 -20 27 -31 17z"></path> 
 <path fill="#000000" stroke="none" d="M544 1086 c-9 -24 12 -44 28 -28 10 10
8 16 -5 29 -15 15 -17 15 -23 -1z"></path> 
 <path fill="#000000" stroke="none" d="M671 1086 c-14 -17 -7 -36 14 -36 22 0
29 20 13 36 -13 13 -16 13 -27 0z"></path> 
 <path fill="#000000" stroke="none" d="M602 1073 c2 -10 10 -18 18 -18 8 0 16
8 18 18 2 12 -3 17 -18 17 -15 0 -20 -5 -18 -17z"></path> 
 <path fill="#000000" stroke="none" d="M603 1004 c-7 -18 17 -38 31 -24 11 11
1 40 -14 40 -6 0 -13 -7 -17 -16z"></path> 
 <path fill="#000000" stroke="none" d="M1100 685 c-11 -13 -11 -19 3 -32 14
-14 17 -14 31 -1 14 14 13 17 -3 32 -16 15 -19 15 -31 1z"></path> 
 <path fill="#000000" stroke="none" d="M115 660 c-4 -6 -1 -17 5 -26 15 -18
42 0 33 22 -6 16 -29 19 -38 4z"></path> 
 <path fill="#000000" stroke="none" d="M275 656 c-44 -19 -66 -49 -76 -102
-22 -117 64 -214 150 -169 52 26 66 59 64 144 -2 88 -14 116 -56 131 -38 13
-45 12 -82 -4z"></path> 
 <path fill="#31bbfe" stroke="none" d="M366 487 c-14 -75 -84 -89 -112 -22 -8
19 -11 47 -8 64 6 28 10 31 43 31 20 0 43 5 51 10 20 13 35 -35 26 -83z"></path> 
 <path fill="#000000" stroke="none" d="M914 656 c-46 -20 -72 -60 -79 -121 -9
-67 14 -120 63 -149 29 -16 39 -17 73 -7 64 19 81 57 75 160 -4 63 -10 89 -23
102 -25 25 -72 32 -109 15z"></path> 
 <path fill="#31bbfe" stroke="none" d="M1000 520 c0 -65 -21 -100 -59 -100
-26 0 -61 46 -61 81 0 46 10 59 44 59 17 0 38 5 46 10 26 17 30 11 30 -50z"></path> 
 <path fill="#000000" stroke="none" d="M605 430 c-8 -13 14 -42 26 -34 5 3 9
14 9 25 0 20 -24 26 -35 9z"></path> 
 <path fill="#000000" stroke="none" d="M163 350 c-49 -30 -67 -72 -67 -165
l-1 -80 210 0 210 0 3 72 c3 86 -20 142 -71 173 -43 26 -61 25 -82 -6 -15 -24
-18 -24 -34 -10 -22 20 -35 20 -51 1 -11 -13 -15 -11 -32 10 -23 30 -43 31
-85 5z"></path> 
 <path fill="#31bbfe" stroke="none" d="M329 253 c9 -48 9 -59 -4 -72 -21 -22
-51 -2 -47 30 6 46 23 99 31 99 5 0 13 -26 20 -57z"></path> 
 <path fill="#31bbfe" stroke="none" d="M170 185 c0 -14 -4 -25 -10 -25 -5 0
-10 11 -10 25 0 14 5 25 10 25 6 0 10 -11 10 -25z"></path> 
 <path fill="#31bbfe" stroke="none" d="M460 185 c0 -14 -4 -25 -10 -25 -5 0
-10 11 -10 25 0 14 5 25 10 25 6 0 10 -11 10 -25z"></path> 
 <path fill="#000000" stroke="none" d="M547 364 c-14 -15 -6 -34 14 -34 14 0
19 5 17 17 -3 18 -20 27 -31 17z"></path> 
 <path fill="#000000" stroke="none" d="M610 354 c-9 -10 -10 -18 -2 -26 12
-12 32 -2 32 17 0 21 -16 26 -30 9z"></path> 
 <path fill="#000000" stroke="none" d="M667 356 c-9 -22 18 -40 33 -22 6 9 9
20 5 26 -9 15 -32 12 -38 -4z"></path> 
 <path fill="#000000" stroke="none" d="M803 350 c-49 -30 -67 -72 -67 -165
l-1 -80 210 0 210 0 3 57 c6 106 -35 187 -103 204 -22 5 -31 2 -49 -21 -20
-24 -23 -26 -35 -11 -16 19 -42 21 -60 4 -10 -11 -16 -9 -28 10 -19 27 -38 28
-80 2z"></path> 
 <path fill="#31bbfe" stroke="none" d="M967 249 c10 -44 10 -56 -2 -68 -20
-20 -45 -6 -45 26 0 52 13 104 24 100 6 -2 16 -28 23 -58z"></path> 
 <path fill="#31bbfe" stroke="none" d="M810 186 c0 -14 -4 -28 -10 -31 -6 -4
-10 7 -10 24 0 17 5 31 10 31 6 0 10 -11 10 -24z"></path> 
 <path fill="#31bbfe" stroke="none" d="M1100 186 c0 -14 -4 -28 -10 -31 -6 -4
-10 7 -10 24 0 17 5 31 10 31 6 0 10 -11 10 -24z"></path> 
 <path fill="#000000" stroke="none" d="M605 280 c-8 -14 3 -30 21 -30 8 0 14
9 14 20 0 21 -24 28 -35 10z"></path> 
</g> 
</svg>