<svg version="1.0" xmlns="http://www.w3.org/2000/svg" width="128.000000pt" height="128.000000pt" viewBox="0 0 128.000000 128.000000" preserveAspectRatio="xMidYMid meet" id="1229437036" class="svg u_1229437036" alt="generative AI" data-icon-custom="true" data-icon-name="Screenshot 2024-02-22 at 11.29.40.svg"> <metadata>Created by potrace 1.16, written by Peter Selinger 2001-2019</metadata> 
 <g transform="translate(0.000000,128.000000) scale(0.100000,-0.100000)" fill="#000000" stroke="none"> <path fill="#000000" stroke="none" d="M186 1201 c-24 -25 -26 -32 -15 -48 18
-30 89 -27 113 5 29 38 6 48 -39 18 -43 -29 -63 -25 -26 5 13 11 21 25 17 34
-8 22 -19 19 -50 -14z"></path> 
 <path fill="#000000" stroke="none" d="M625 1201 c-9 -16 3 -31 26 -31 14 0
19 6 17 17 -4 20 -33 29 -43 14z"></path> 
 <path fill="#000000" stroke="none" d="M1045 1200 c-3 -5 -13 -10 -21 -10 -23
0 -75 -56 -68 -73 3 -8 1 -18 -5 -22 -13 -8 -15 -45 -2 -45 6 0 9 -10 8 -22
-1 -13 1 -23 5 -23 4 0 15 -10 23 -22 9 -13 23 -23 31 -23 8 0 23 -6 34 -12
16 -10 24 -10 40 0 11 6 29 12 41 12 12 0 23 8 26 20 3 11 12 20 20 20 11 0
14 7 10 22 -4 12 -1 28 5 35 5 7 7 21 3 30 -5 10 -7 28 -6 41 2 13 -3 22 -11
22 -7 0 -18 10 -23 23 -7 15 -17 21 -32 19 -12 -2 -24 2 -28 8 -8 13 -42 13
-50 0z"></path> 
 <path fill="#31bbfe" stroke="none" d="M1113 1145 c9 -4 17 -13 17 -21 0 -8 4
-14 9 -14 10 0 8 -50 -4 -87 -4 -13 -12 -19 -21 -16 -8 3 -14 0 -14 -7 0 -9
-4 -9 -17 1 -11 10 -17 11 -20 3 -3 -9 -10 -9 -27 -1 -34 16 -50 45 -36 62 7
9 8 15 1 19 -6 4 -8 13 -5 21 4 8 11 12 16 9 6 -4 9 -1 6 7 -9 27 52 42 95 24z"></path> 
 <path fill="#000000" stroke="none" d="M1034 1119 c-4 -6 -10 -26 -14 -44 -6
-25 -3 -34 11 -43 27 -17 64 -15 82 6 21 23 21 41 1 70 -16 24 -67 31 -80 11z"></path> 
 <path fill="#000000" stroke="none" d="M537 1193 c-14 -13 -6 -33 13 -33 13 0
20 7 20 20 0 19 -20 27 -33 13z"></path> 
 <path fill="#000000" stroke="none" d="M720 1181 c0 -15 6 -21 21 -21 14 0 19
5 17 17 -5 26 -38 29 -38 4z"></path> 
 <path fill="#000000" stroke="none" d="M452 1172 c-12 -8 -7 -42 7 -42 17 1
33 20 28 34 -7 18 -16 20 -35 8z"></path> 
 <path fill="#000000" stroke="none" d="M806 1164 c-8 -20 -7 -21 19 -26 14 -2
20 3 20 17 0 25 -30 32 -39 9z"></path> 
 <path fill="#000000" stroke="none" d="M294 1139 c-11 -12 -17 -32 -16 -49 2
-15 -2 -31 -9 -35 -8 -6 -5 -13 12 -26 24 -18 24 -17 56 13 30 29 31 33 18 57
-7 14 -16 34 -19 44 -7 23 -19 22 -42 -4z"></path> 
 <path fill="#31bbfe" stroke="none" d="M320 1075 c0 -8 -4 -15 -10 -15 -5 0
-10 7 -10 15 0 8 5 15 10 15 6 0 10 -7 10 -15z"></path> 
 <path fill="#000000" stroke="none" d="M110 1115 c-32 -33 -33 -36 -17 -53 9
-10 17 -26 17 -35 0 -22 32 -22 50 1 19 21 18 89 -1 108 -13 12 -19 10 -49
-21z"></path> 
 <path fill="#31bbfe" stroke="none" d="M150 1080 c0 -5 -4 -10 -10 -10 -5 0
-10 5 -10 10 0 6 5 10 10 10 6 0 10 -4 10 -10z"></path> 
 <path fill="#000000" stroke="none" d="M194 1106 c-15 -40 21 -81 50 -57 21
17 21 57 0 65 -26 10 -44 7 -50 -8z"></path> 
 <path fill="#000000" stroke="none" d="M595 1104 c-102 -26 -139 -50 -128 -81
6 -17 29 -16 78 2 53 19 147 19 192 0 19 -8 43 -15 53 -15 19 0 34 26 24 42
-20 31 -164 65 -219 52z"></path> 
 <path fill="#000000" stroke="none" d="M159 1004 c-21 -23 -19 -44 5 -44 7 0
23 11 36 25 12 13 27 22 32 19 5 -4 -2 -19 -17 -34 -17 -18 -23 -30 -16 -35
17 -10 44 3 64 30 14 20 15 28 6 43 -18 28 -82 26 -110 -4z"></path> 
 <path fill="#000000" stroke="none" d="M543 989 c-109 -42 -176 -142 -177
-264 -1 -115 60 -215 159 -261 64 -30 170 -33 231 -5 125 57 191 214 150 356
-14 45 -29 69 -69 110 -84 83 -186 106 -294 64z"></path> 
 <path fill="#31bbfe" stroke="none" d="M753 928 c106 -58 145 -203 87 -318
-96 -188 -376 -146 -420 63 -18 87 1 149 64 212 28 28 67 56 86 63 50 16 133
7 183 -20z"></path> 
 <path fill="#000000" stroke="none" d="M630 875 c0 -16 6 -25 15 -25 9 0 15 9
15 25 0 16 -6 25 -15 25 -9 0 -15 -9 -15 -25z"></path> 
 <path fill="#000000" stroke="none" d="M703 778 l-62 -62 -29 27 c-15 15 -33
27 -40 27 -25 0 -11 -37 28 -75 l40 -39 80 79 c44 44 79 84 77 90 -9 25 -36
11 -94 -47z"></path> 
 <path fill="#000000" stroke="none" d="M636 583 c-12 -13 -6 -53 9 -53 9 0 15
9 15 24 0 26 -12 40 -24 29z"></path> 
 <path fill="#000000" stroke="none" d="M359 958 c-31 -33 -72 -126 -73 -167
-1 -30 3 -37 21 -39 22 -3 26 4 37 69 4 20 22 58 41 84 26 37 32 52 23 62 -15
18 -24 16 -49 -9z"></path> 
 <path fill="#000000" stroke="none" d="M873 964 c-3 -9 -1 -24 6 -33 36 -51
52 -80 62 -116 6 -22 13 -46 15 -52 2 -7 13 -13 24 -13 46 0 11 131 -53 198
-35 36 -45 39 -54 16z"></path> 
 <path fill="#000000" stroke="none" d="M170 855 c0 -18 5 -25 20 -25 15 0 20
7 20 25 0 18 -5 25 -20 25 -15 0 -20 -7 -20 -25z"></path> 
 <path fill="#000000" stroke="none" d="M1072 858 c5 -34 38 -37 38 -4 0 20 -5
26 -21 26 -15 0 -20 -5 -17 -22z"></path> 
 <path fill="#000000" stroke="none" d="M177 793 c-13 -12 -7 -41 8 -47 18 -6
30 16 21 39 -6 16 -18 19 -29 8z"></path> 
 <path fill="#000000" stroke="none" d="M1074 786 c-9 -24 3 -47 21 -40 18 7
16 45 -2 52 -7 2 -16 -3 -19 -12z"></path> 
 <path fill="#000000" stroke="none" d="M170 685 c0 -18 5 -25 20 -25 15 0 20
7 20 25 0 18 -5 25 -20 25 -15 0 -20 -7 -20 -25z"></path> 
 <path fill="#000000" stroke="none" d="M1070 685 c0 -18 5 -25 20 -25 15 0 20
7 20 25 0 18 -5 25 -20 25 -15 0 -20 -7 -20 -25z"></path> 
 <path fill="#000000" stroke="none" d="M172 593 c2 -17 9 -28 18 -28 9 0 16
11 18 28 3 22 -1 27 -18 27 -17 0 -21 -5 -18 -27z"></path> 
 <path fill="#000000" stroke="none" d="M283 613 c-18 -7 -16 -53 3 -60 8 -3
22 1 30 9 24 24 -1 62 -33 51z"></path> 
 <path fill="#000000" stroke="none" d="M963 605 c-14 -11 -16 -18 -7 -32 17
-28 48 -23 52 8 4 32 -18 43 -45 24z"></path> 
 <path fill="#000000" stroke="none" d="M1074 605 c-8 -21 3 -48 19 -43 19 7
22 58 2 58 -8 0 -18 -7 -21 -15z"></path> 
 <path fill="#000000" stroke="none" d="M105 518 c-3 -8 -4 -108 -3 -223 l3
-210 93 -3 92 -3 0 96 0 95 -70 0 -70 0 0 65 c0 64 0 65 28 65 18 0 35 -10 54
-32 l27 -33 33 33 c19 17 44 32 56 32 21 0 22 -3 24 -157 3 -142 5 -158 21
-161 16 -3 17 11 15 220 l-3 223 -148 3 c-114 2 -149 0 -152 -10z"></path> 
 <path fill="#31bbfe" stroke="none" d="M370 465 c0 -12 -19 -15 -110 -15 -91
0 -110 3 -110 15 0 12 19 15 110 15 91 0 110 -3 110 -15z"></path> 
 <path fill="#31bbfe" stroke="none" d="M250 180 l0 -50 -50 0 -50 0 0 50 0 50
50 0 50 0 0 -50z"></path> 
 <path fill="#000000" stroke="none" d="M875 518 c-3 -8 -4 -108 -3 -223 3
-202 4 -210 23 -210 18 0 20 8 23 62 l3 63 109 0 110 0 0 -65 c0 -59 2 -65 20
-65 20 0 20 5 18 222 l-3 223 -148 3 c-114 2 -149 0 -152 -10z"></path> 
 <path fill="#31bbfe" stroke="none" d="M1140 465 c0 -12 -19 -15 -110 -15 -91
0 -110 3 -110 15 0 12 19 15 110 15 91 0 110 -3 110 -15z"></path> 
 <path fill="#31bbfe" stroke="none" d="M995 370 l31 -30 29 30 c19 19 39 30
57 30 l28 0 0 -70 0 -70 -110 0 -110 0 0 70 c0 65 1 70 22 70 12 0 36 -14 53
-30z"></path> 
 <path fill="#000000" stroke="none" d="M629 398 c-8 -27 -5 -38 12 -38 12 0
19 7 19 20 0 11 -7 20 -15 20 -8 0 -15 -1 -16 -2z"></path> 
 <path fill="#000000" stroke="none" d="M484 327 c-2 -7 -3 -65 -2 -128 3 -106
4 -114 23 -114 18 0 20 8 23 63 3 60 4 62 30 62 16 0 39 -12 59 -32 l33 -32
33 32 c19 18 43 32 57 32 24 0 25 -4 28 -62 4 -70 5 -73 27 -64 13 5 15 24 13
128 l-3 123 -158 3 c-124 2 -159 0 -163 -11z"></path> 
 <path fill="#31bbfe" stroke="none" d="M770 275 c0 -12 -20 -15 -120 -15 -100
0 -120 3 -120 15 0 13 20 15 120 15 100 0 120 -2 120 -15z"></path> 
 <path fill="#000000" stroke="none" d="M315 250 c-8 -14 3 -30 21 -30 8 0 14
9 14 20 0 21 -24 28 -35 10z"></path> 
</g> 
</svg>