<svg xmlns="http://www.w3.org/2000/svg" width="170.667" height="170.667" class="svg u_1821330510" data-icon-custom="true" data-icon-name="Screenshot 2024-02-22 at 11.32.38.svg" version="1.0" viewBox="0 0 128 128"><path d="M51.3 9.4c-1.8.8-3.8 2.4-4.5 3.5-.7 1.2-2.2 2.1-3.4 2.1-1.2 0-3.8 1.1-5.8 2.5S33.2 20 32.4 20C27.1 20 21 26.9 21 32.8c0 2.5-.8 4-3 5.9-4 3.3-7 9.3-7 13.9 0 5.5 3.6 12.1 8.2 15.2 3.7 2.4 4.9 2.6 17 3 12 .3 13.3.1 18.3-2.2 3-1.4 6.1-3.6 7.1-5.3 1-1.5 1.9-3 2-3.2.2-.2 1.8 1.4 3.6 3.5 5.4 6.1 9.7 7.5 23.5 7.3 7.5-.1 13.1-.7 15.3-1.6 12.4-5 15.5-20.4 5.9-29.5-2.1-2.1-3.9-4.7-3.9-5.8 0-6.1-6.7-14-11.9-14-1.5 0-3.6-.9-4.5-1.9-1-1.1-3.2-2.3-5-2.7-1.7-.3-4.5-1.9-6.3-3.4-1.7-1.6-4.6-3.1-6.3-3.5-3.3-.7-9 1-9 2.8 0 .5-.8.2-1.9-.7-2.6-2.3-8-2.9-11.8-1.2z"/><path fill="#31bbfe" d="M60 16.9c.5 1.1 1 6.9 1 13v11l-7.2.3-7.3.3-.3 4.7c-.3 4.6-.5 4.8-3.3 4.8s-2.9-.1-2.9-5.4c0-7.5-2.5-10.6-8.6-10.6-5 0-5.6-1.2-2.3-5.4 2.2-2.7 4.8-3.3 6.6-1.5 1.3 1.3 3.3.4 3.3-1.5 0-1.5 2.7-4 5.3-4.9 1.2-.5 2.7.2 4.3 1.8 3.5 3.5 6.4 3.3 6.4-.4 0-1.6-.7-3.4-1.5-4.1-1.2-1-1.3-1.6-.4-2.6 1.7-2 5.7-1.7 6.9.5zM75.7 16.1c.9.9.6 1.9-.9 4-1.1 1.5-1.8 3.5-1.5 4.3.9 2.3 5 2 6.5-.4 2.2-3.5 7.3-2.4 9.6 2.1.7 1.3 1.9 2.2 2.7 2 .8-.2 2.1-.6 3.1-.8 2.1-.6 5.8 3.1 5.8 5.7 0 1.6-.7 2-3.8 2-2.1 0-4.8.7-6 1.6-1.9 1.3-2.2 2.4-2.2 8V51h-7V41H68V29.2c0-7.8.4-12.2 1.2-13 1.5-1.5 5-1.6 6.5-.1z"/><path fill="#31bbfe" d="M34 49.5V57h7.8c8.9 0 10.2-.8 10.2-6.2V47h9.3l-.6 3.7C59 60.8 47 67.2 38.2 62.6c-2.3-1.2-3.1-1.2-5.2 0-5.2 2.8-10.6 1-13.5-4.6-2.5-4.9-1.7-9.6 2.3-14.3 1.1-1.2 3-1.7 6.9-1.7H34v7.5zM107.4 44.5c8.2 8.8-2.6 24.6-12.2 17.9-2-1.4-2.4-1.4-4.4 0-3 2.2-10.6 2-14.8-.3-4-2.1-8-8.3-8-12.4 0-2.5.3-2.7 4-2.7 3.8 0 4 .2 4 3.1 0 6.1 1.2 6.9 10.5 6.9H95V42h5c4.2 0 5.5.5 7.4 2.5z"/><path d="M42.1 31c-1.9 1.1-.9 4.5 1.4 4.5 1.3 0 2.1-.8 2.3-2.1.3-2.3-1.7-3.7-3.7-2.4zM49.4 31.5c-1 2.5.4 4.5 3 4.5 2.7 0 4.2-2.6 2.5-4.6-1.5-1.9-4.8-1.8-5.5.1zM72.6 31.6c-1.1 3 1.3 4.4 7.5 4.4 4.6 0 6-.4 6.8-1.8 1.6-3-.6-4.2-7.5-4.2-4.8 0-6.3.4-6.8 1.6zM25.7 48.7c-1.5 1.5-.7 7.2 1.2 8.2 2.5 1.4 3.1.5 3.1-4.6 0-3.5-.3-4.3-1.8-4.3-1 0-2.2.3-2.5.7zM99.2 48.2c-3.2 3.2-.1 11.6 3.3 8.8 2.6-2.2 1.4-10-1.5-10-.3 0-1.1.5-1.8 1.2zM62.2 68.2c-3 3 0 7.8 3.7 5.8 2.5-1.3 2.7-3.3.5-5.4-1.9-1.9-2.6-2-4.2-.4zM52.4 75c-1.5 1.5-.7 4.7 1.3 5.4 2.2.9 4.5-1.3 4.1-3.8-.3-2.4-3.7-3.3-5.4-1.6zM71.1 75.8c-.7 1.4-.6 2.4.4 3.8 1.8 2.5 5 .7 5-2.7 0-3.1-3.9-3.9-5.4-1.1zM32 76.9c-2.1 4.1 3 8.2 5.7 4.5 1.7-2.3 1.6-2.9-.3-4.8-2.1-2.1-4.1-2-5.4.3zM42.7 75.6c-.4.4-.7 2.9-.7 5.5 0 5.1 1.2 6.9 6 9.4l2.8 1.4.4 13.6c.3 13.8 1 16.1 4.5 14.8 1-.4 1.3-4 1.3-16.3 0-16.9 0-16.9-5.5-18.7-2.6-.8-3.1-1.5-3.5-5.4-.4-3.5-.9-4.5-2.5-4.7-1.2-.2-2.4 0-2.8.4zM81.5 76.2c-.2.7-.6 2.8-.7 4.7-.3 2.9-.8 3.6-3.7 4.6-5.6 1.9-6.1 3.3-6.1 19.1 0 14.8.7 17.2 4.4 15.8 1.4-.5 1.6-2.6 1.6-14V93l3.8-2.4c5.5-3.5 6.4-4.9 6-10.3-.3-4.1-.6-4.8-2.6-5.1-1.2-.2-2.4.3-2.7 1zM92.4 75.8c-3.2 2.2-1.3 7.7 2.4 7 2.3-.5 3.4-4.5 1.6-6.3-1.7-1.7-2.4-1.8-4-.7zM62.5 79.6c-2.2 2.2-2.2 38.5 0 40.4.8.7 2.1 1 2.9.7 1.3-.5 1.6-4 1.8-19.9.2-10.6.2-19.8 0-20.5-.6-1.9-3-2.3-4.7-.7z"/><path d="M23.2 86.2c-2 2-1.4 5.5 1.4 7.7 2 1.5 4.1 2.1 8 2.1 8.3 0 9.4 1.6 9.4 13.9 0 8.2.3 10 1.6 10.5 3.5 1.3 4.4-1.2 4.4-12.4V97.2l-4-3.6c-3.4-3.1-4.7-3.6-8.8-3.6-3.9 0-4.9-.4-5.7-2.3-1.1-2.5-4.4-3.4-6.3-1.5zM99.4 87.5c-.6 2.3-1.1 2.5-5.8 2.5-4.7 0-5.5.4-8.9 3.8l-3.8 3.9.3 10.9.3 10.9 2.8.3 2.7.3v-10.5c0-9.7.2-10.6 2.2-12 1.4-1 4.4-1.6 7.6-1.6 4.3 0 5.8-.5 7.7-2.5 4-3.9 2.8-8.5-2.2-8.5-1.6 0-2.4.7-2.9 2.5zM23.3 106c-.3 1.1-1.4 2-2.4 2-1.1 0-1.9.7-1.9 1.5s.9 1.5 2 1.5c1.3 0 2 .7 2 2s.7 2 1.9 2c1 0 2.1-.9 2.4-2 .3-1.1 1.2-2 2.1-2 .9 0 1.6-.7 1.6-1.5s-.9-1.5-2-1.5c-1.3 0-2-.7-2-2 0-1.2-.7-2-1.6-2-.9 0-1.8.9-2.1 2zM101 105.9c0 1.3-.8 2.1-2.2 2.3-1.3.2-2.3.7-2.3 1.3 0 .5 1 1.1 2.3 1.3 1.4.2 2.2 1 2.2 2.3 0 2.5 2.6 2.5 3.3-.1.3-1.2 1.4-2 2.6-2 1.2 0 2.1-.6 2.1-1.5 0-.8-.8-1.5-1.9-1.5-1 0-2.1-.9-2.4-2-.7-2.6-3.7-2.6-3.7-.1z"/></svg>