<svg version="1.0" xmlns="http://www.w3.org/2000/svg" width="128.000000pt" height="128.000000pt" viewBox="0 0 128.000000 128.000000" preserveAspectRatio="xMidYMid meet" id="1649158430" class="svg u_1649158430" alt="software engineering" data-icon-custom="true" data-icon-name="Screenshot 2024-02-22 at 11.32.01.svg"> <metadata>Created by potrace 1.16, written by Peter Selinger 2001-2019</metadata> 
 <g transform="translate(0.000000,128.000000) scale(0.100000,-0.100000)" fill="#000000" stroke="none"> <path fill="#000000" stroke="none" d="M972 1192 c-14 -4 -16 -52 -2 -52 6 0
10 -4 10 -9 0 -5 -44 -26 -97 -48 -72 -28 -128 -60 -211 -120 -62 -46 -115
-83 -117 -83 -2 0 -32 20 -67 44 -35 24 -76 51 -91 61 l-28 18 -149 -149
c-107 -105 -150 -155 -150 -171 0 -13 5 -24 10 -24 6 -1 14 -2 19 -3 9 -1 65
50 218 198 l62 60 85 -57 c47 -31 90 -57 95 -57 6 0 63 40 128 88 92 70 140
98 222 130 57 23 105 42 108 42 2 0 3 -8 2 -17 -3 -36 1 -44 23 -41 30 4 87
143 67 163 -15 14 -117 34 -137 27z"></path> 
 <path fill="#000000" stroke="none" d="M926 961 c-14 -16 -16 -41 -14 -192 l3
-174 48 -3 47 -3 0 185 c0 173 -1 186 -19 196 -28 15 -46 12 -65 -9z"></path> 
 <path fill="#000000" stroke="none" d="M761 887 c-7 -9 -12 -119 -13 -338 l-3
-324 -35 0 -35 0 -3 249 c-1 164 -6 254 -13 263 -17 19 -57 16 -69 -6 -6 -12
-10 -115 -10 -265 l0 -246 -35 0 -35 0 0 278 c0 258 -1 280 -18 295 -22 20
-53 22 -70 5 -9 -9 -12 -88 -12 -295 l0 -283 -35 0 -35 0 0 233 c0 194 -3 236
-16 255 -18 26 -46 28 -68 6 -12 -11 -16 -35 -16 -85 l0 -69 40 0 c36 0 40 -3
40 -25 0 -28 -29 -48 -51 -34 -7 5 -17 9 -21 9 -5 0 -8 -65 -8 -145 l0 -145
-80 0 c-67 0 -81 -3 -89 -19 -20 -37 6 -50 104 -53 l90 -3 5 -30 c5 -27 10
-31 39 -26 5 0 11 13 13 29 3 25 7 27 56 30 49 3 52 2 52 -21 0 -34 25 -54 45
-37 8 7 15 23 15 36 0 22 4 24 55 24 51 0 55 -2 55 -24 0 -13 7 -29 15 -36 20
-17 45 3 45 37 0 23 3 24 53 21 47 -3 52 -5 56 -28 6 -47 48 -48 53 -2 3 25 7
27 56 30 49 3 52 2 52 -20 0 -13 5 -29 12 -36 17 -17 48 4 48 34 0 25 1 25 79
23 85 -2 101 3 101 30 0 30 -22 40 -90 43 l-65 3 -3 156 -2 155 -33 0 c-17 0
-40 4 -49 8 -17 8 -18 -3 -18 -158 l0 -166 -35 0 -35 0 0 328 c0 242 -3 331
-12 340 -16 16 -53 15 -67 -1z"></path> 
</g> 
</svg>