<svg version="1.0" xmlns="http://www.w3.org/2000/svg" width="128.000000pt" height="128.000000pt" viewBox="0 0 128.000000 128.000000" preserveAspectRatio="xMidYMid meet" id="1014211384" class="svg u_1014211384" data-icon-custom="true" data-icon-name="DALL·E 2024-02-22 11.24.56 - Design an icon for Image Processing services, focusing on neural-network-based capabilities like object detection, image classification, and enhance.svg"> <metadata>Created by potrace 1.16, written by Peter Selinger 2001-2019</metadata> 
    <g transform="translate(0.000000,128.000000) scale(0.100000,-0.100000)" fill="#000000" stroke="none"> <path fill="#000000" stroke="none" d="M0 640 l0 -640 640 0 640 0 0 640 0
   640 -640 0 -640 0 0 -640z"></path> 
    <path fill="#31bbfe" stroke="none" d="M710 1120 c202 -32 378 -207 411 -410
   20 -122 -17 -266 -89 -352 -32 -38 -28 -4 8 65 86 168 73 338 -38 485 -84 112
   -198 172 -344 180 -192 10 -352 -86 -440 -265 -28 -57 -33 -79 -36 -159 -5
   -108 18 -204 66 -270 43 -60 45 -64 28 -64 -23 0 -84 96 -106 169 -94 300 129
   609 455 630 11 0 49 -4 85 -9z"></path> 
    <path fill="#31bbfe" stroke="none" d="M751 1054 c125 -37 226 -123 282 -242
   25 -54 32 -82 35 -152 2 -47 0 -95 -5 -108 -6 -15 -8 12 -8 81 0 99 -1 106
   -38 179 -106 216 -349 303 -562 202 -54 -26 -71 -25 -31 1 77 51 226 69 327
   39z"></path> 
    <path fill="#31bbfe" stroke="none" d="M564 994 c-5 -30 -4 -34 15 -34 12 0
   21 -6 21 -15 0 -8 7 -15 15 -15 9 0 15 -9 15 -24 0 -14 5 -28 10 -31 6 -4 10
   7 10 24 0 24 4 31 20 31 11 0 20 7 20 15 0 8 7 15 16 15 13 0 15 7 10 33 -7
   37 1 52 19 37 15 -13 -4 -80 -22 -80 -7 0 -13 -7 -13 -15 0 -8 -9 -15 -19 -15
   -14 0 -19 -6 -18 -20 1 -20 22 -28 29 -11 5 13 48 24 48 12 0 -6 -9 -11 -20
   -11 -31 0 -24 -15 14 -28 19 -7 40 -20 47 -29 11 -12 4 -11 -28 6 -80 40 -172
   24 -230 -42 -63 -72 -68 -152 -13 -241 26 -41 28 -47 10 -31 -81 72 -77 219 9
   299 29 28 30 31 14 48 -10 11 -12 18 -4 18 6 0 14 -7 17 -15 7 -19 34 -20 34
   -2 0 23 -46 59 -71 55 -16 -2 -25 3 -27 15 -2 10 3 17 12 17 9 0 16 -4 16 -10
   0 -5 8 -10 18 -10 9 0 28 -16 42 -35 30 -41 40 -44 40 -11 0 16 -7 26 -21 29
   -12 3 -18 10 -14 16 3 7 -2 11 -14 11 -16 0 -21 6 -21 24 0 14 -5 28 -10 31
   -8 5 -7 11 1 21 18 22 30 6 23 -32z"></path> 
    <path fill="#31bbfe" stroke="none" d="M650 1030 c0 -5 -4 -10 -10 -10 -5 0
   -10 5 -10 10 0 6 5 10 10 10 6 0 10 -4 10 -10z"></path> 
    <path fill="#31bbfe" stroke="none" d="M510 995 c0 -8 -6 -15 -14 -15 -17 0
   -28 14 -19 24 12 12 33 6 33 -9z"></path> 
    <path fill="#31bbfe" stroke="none" d="M618 990 c12 -19 11 -20 -8 -8 -20 13
   -27 28 -12 28 4 0 13 -9 20 -20z"></path> 
    <path fill="#31bbfe" stroke="none" d="M690 992 c0 -10 -22 -32 -32 -32 -5 0
   -3 9 4 20 13 20 28 27 28 12z"></path> 
    <path fill="#31bbfe" stroke="none" d="M784 979 c-3 -5 -10 -7 -15 -3 -5 3 -7
   10 -3 15 3 5 10 7 15 3 5 -3 7 -10 3 -15z"></path> 
    <path fill="#31bbfe" stroke="none" d="M451 960 c12 -7 19 -21 19 -40 0 -32
   -16 -48 -33 -31 -6 6 -24 11 -39 11 -32 0 -39 28 -12 54 18 19 38 20 65 6z"></path> 
    <path fill="#31bbfe" stroke="none" d="M855 960 c3 -5 13 -6 22 -3 12 5 15 2
   11 -9 -4 -9 -1 -21 5 -27 8 -8 8 -14 0 -22 -6 -6 -9 -17 -7 -24 6 -15 -43 -27
   -75 -18 -11 3 -21 13 -21 23 0 10 -6 21 -12 24 -10 5 -10 7 0 12 6 3 12 14 12
   24 0 11 9 20 23 23 12 2 25 5 29 6 4 0 9 -3 13 -9z"></path> 
    <path fill="#31bbfe" stroke="none" d="M303 893 c-70 -93 -101 -204 -85 -308
   5 -30 5 -55 1 -55 -12 0 -22 87 -16 149 3 31 15 81 26 111 22 58 84 150 101
   150 5 0 -7 -21 -27 -47z"></path> 
    <path fill="#31bbfe" stroke="none" d="M942 878 c-9 -9 -15 -9 -24 0 -9 9 -7
   12 12 12 19 0 21 -3 12 -12z"></path> 
    <path fill="#31bbfe" stroke="none" d="M441 848 c51 -56 34 -78 -62 -78 -47 0
   -70 4 -79 15 -17 20 -5 45 21 45 12 0 30 11 41 25 26 33 43 32 79 -7z"></path> 
    <path fill="#31bbfe" stroke="none" d="M510 854 c0 -8 -5 -12 -10 -9 -6 4 -8
   11 -5 16 9 14 15 11 15 -7z"></path> 
    <path fill="#31bbfe" stroke="none" d="M736 815 c27 -14 55 -25 63 -25 8 0 11
   -6 7 -16 -3 -8 1 -26 10 -40 24 -36 15 -131 -14 -155 -12 -9 -22 -22 -22 -27
   0 -15 -82 -52 -116 -52 -16 0 -47 9 -70 19 -136 62 -120 268 25 311 44 14 66
   11 117 -15z"></path> 
    <path fill="#31bbfe" stroke="none" d="M978 810 c17 -11 32 -22 32 -25 0 -11
   -66 -45 -87 -45 -12 0 -34 10 -49 23 l-27 23 28 22 c34 27 61 28 103 2z"></path> 
    <path fill="#31bbfe" stroke="none" d="M277 736 c-8 -9 -14 -10 -23 -2 -14 13
   2 27 22 19 10 -4 10 -8 1 -17z"></path> 
    <path fill="#31bbfe" stroke="none" d="M377 718 c-3 -7 -5 -2 -5 12 0 14 2 19
   5 13 2 -7 2 -19 0 -25z"></path> 
    <path fill="#31bbfe" stroke="none" d="M434 698 l-7 -33 -9 30 c-10 36 -2 63
   13 48 7 -7 8 -24 3 -45z"></path> 
    <path fill="#31bbfe" stroke="none" d="M340 714 c0 -14 -21 -19 -33 -7 -9 9
   13 34 24 27 5 -3 9 -12 9 -20z"></path> 
    <path fill="#31bbfe" stroke="none" d="M933 713 c-13 -2 -35 -2 -50 0 -16 2
   -5 4 22 4 28 0 40 -2 28 -4z"></path> 
    <path fill="#31bbfe" stroke="none" d="M1025 700 c0 -12 -16 -15 -75 -16 -46
   -1 -56 1 -25 3 30 3 53 10 58 19 11 19 42 14 42 -6z"></path> 
    <path fill="#31bbfe" stroke="none" d="M277 684 c3 -8 1 -20 -6 -27 -6 -6 -12
   -34 -12 -61 -2 -48 -2 -46 -9 19 -4 39 -6 73 -3 78 7 12 23 8 30 -9z"></path> 
    <path fill="#31bbfe" stroke="none" d="M390 670 c0 -21 -24 -28 -35 -10 -8 14
   3 30 21 30 8 0 14 -9 14 -20z"></path> 
    <path fill="#31bbfe" stroke="none" d="M1003 644 c20 -3 37 -10 37 -15 0 -12
   -57 -11 -65 1 -3 6 -23 10 -43 10 -20 0 -44 5 -52 11 -16 10 43 7 123 -7z"></path> 
    <path fill="#31bbfe" stroke="none" d="M322 604 c-5 -56 -18 -63 -25 -13 -6
   47 -2 62 16 56 7 -2 11 -20 9 -43z"></path> 
    <path fill="#31bbfe" stroke="none" d="M440 640 c0 -5 -7 -10 -15 -10 -8 0
   -15 5 -15 10 0 6 7 10 15 10 8 0 15 -4 15 -10z"></path> 
    <path fill="#31bbfe" stroke="none" d="M387 610 c3 -11 14 -20 24 -20 19 0 25
   -11 13 -23 -4 -3 -13 0 -21 8 -8 8 -23 15 -34 15 -12 0 -19 7 -19 20 0 12 7
   20 16 20 9 0 18 -9 21 -20z"></path> 
    <path fill="#31bbfe" stroke="none" d="M440 610 c0 -5 -7 -10 -15 -10 -8 0
   -15 5 -15 10 0 6 7 10 15 10 8 0 15 -4 15 -10z"></path> 
    <path fill="#31bbfe" stroke="none" d="M962 595 c13 -16 30 -25 51 -26 24 -1
   26 -3 9 -6 -27 -5 -82 17 -82 34 0 6 -15 14 -32 16 l-33 4 34 1 c25 2 38 -4
   53 -23z"></path> 
    <path fill="#31bbfe" stroke="none" d="M917 574 c3 -8 -2 -23 -11 -32 -15 -15
   -17 -15 -32 0 -21 21 -11 48 16 48 11 0 23 -7 27 -16z"></path> 
    <path fill="#31bbfe" stroke="none" d="M370 558 c0 16 17 16 23 -1 3 -9 -2
   -13 -16 -12 -11 1 -23 8 -25 16 -3 11 -1 11 7 -1 7 -10 11 -11 11 -2z"></path> 
    <path fill="#31bbfe" stroke="none" d="M460 557 c0 -2 -10 -12 -22 -23 l-23
   -19 19 23 c18 21 26 27 26 19z"></path> 
    <path fill="#31bbfe" stroke="none" d="M969 510 c9 0 22 5 27 10 8 8 15 6 24
   -5 20 -24 -3 -44 -30 -27 -11 6 -27 12 -35 12 -11 0 -15 9 -14 33 2 30 2 30 6
   5 3 -18 10 -28 22 -28z"></path> 
    <path fill="#31bbfe" stroke="none" d="M330 474 l0 -55 -42 3 -43 3 -3 53 -3
   52 45 0 46 0 0 -56z"></path> 
    <path fill="#31bbfe" stroke="none" d="M798 518 c-3 -7 -13 -15 -24 -17 -16
   -3 -17 -1 -5 13 16 19 34 21 29 4z"></path> 
    <path fill="#31bbfe" stroke="none" d="M398 492 c3 -17 -2 -22 -18 -22 -25 0
   -38 29 -19 41 20 13 34 6 37 -19z"></path> 
    <path fill="#31bbfe" stroke="none" d="M840 512 c0 -14 -66 -73 -73 -65 -4 4
   7 22 25 40 31 32 48 41 48 25z"></path> 
    <path fill="#31bbfe" stroke="none" d="M480 500 c0 -12 -8 -12 -35 0 -18 8
   -17 9 8 9 15 1 27 -3 27 -9z"></path> 
    <path fill="#31bbfe" stroke="none" d="M440 470 c0 -5 -4 -10 -10 -10 -5 0
   -10 5 -10 10 0 6 5 10 10 10 6 0 10 -4 10 -10z"></path> 
    <path fill="#31bbfe" stroke="none" d="M510 470 c0 -5 -4 -10 -10 -10 -5 0
   -10 5 -10 10 0 6 5 10 10 10 6 0 10 -4 10 -10z"></path> 
    <path fill="#31bbfe" stroke="none" d="M542 360 l-3 -120 110 0 110 0 4 88 3
   87 0 -95 -1 -95 -115 0 -115 0 -3 128 c-1 70 1 127 5 127 4 0 7 -54 5 -120z"></path> 
    <path fill="#31bbfe" stroke="none" d="M930 470 c0 -5 -4 -10 -10 -10 -5 0
   -10 5 -10 10 0 6 5 10 10 10 6 0 10 -4 10 -10z"></path> 
    <path fill="#31bbfe" stroke="none" d="M1014 291 c-6 -6 -163 161 -163 174 0
   6 38 -30 84 -80 46 -49 82 -91 79 -94z"></path> 
    <path fill="#31bbfe" stroke="none" d="M1040 466 c0 -3 -4 -8 -10 -11 -5 -3
   -10 -1 -10 4 0 6 5 11 10 11 6 0 10 -2 10 -4z"></path> 
    <path fill="#31bbfe" stroke="none" d="M735 355 l0 -100 -85 0 -85 0 -3 89
   c-2 49 0 96 2 103 4 11 26 13 88 11 l83 -3 0 -100z"></path> 
    <path fill="#31bbfe" stroke="none" d="M830 450 c0 -5 -4 -10 -10 -10 -5 0
   -10 5 -10 10 0 6 5 10 10 10 6 0 10 -4 10 -10z"></path> 
    <path fill="#31bbfe" stroke="none" d="M398 433 c5 -17 -26 -29 -40 -15 -6 6
   -7 15 -3 22 9 14 37 9 43 -7z"></path> 
    <path fill="#31bbfe" stroke="none" d="M510 440 c0 -5 -11 -10 -25 -10 -14 0
   -25 5 -25 10 0 6 11 10 25 10 14 0 25 -4 25 -10z"></path> 
    <path fill="#31bbfe" stroke="none" d="M1003 438 c11 -34 -17 -48 -52 -26 -18
   11 -18 13 -3 25 22 16 49 16 55 1z"></path> 
    <path fill="#31bbfe" stroke="none" d="M949 329 c32 -36 63 -63 69 -61 22 7
   14 -56 -8 -68 -21 -11 -60 2 -60 19 0 5 -32 44 -71 87 l-71 79 81 -84 c64 -66
   81 -79 81 -62 0 12 -17 37 -40 58 -21 20 -37 39 -35 43 3 4 -5 16 -18 26 l-22
   19 20 -25 20 -25 -23 19 c-12 11 -20 21 -17 24 3 3 -2 13 -11 23 -9 10 -13 23
   -9 29 9 14 36 -10 114 -101z"></path> 
    <path fill="#31bbfe" stroke="none" d="M435 410 c3 -5 1 -10 -4 -10 -6 0 -11
   5 -11 10 0 6 2 10 4 10 3 0 8 -4 11 -10z"></path> 
    <path fill="#31bbfe" stroke="none" d="M510 410 c0 -5 -4 -10 -10 -10 -5 0
   -10 5 -10 10 0 6 5 10 10 10 6 0 10 -4 10 -10z"></path> 
    <path fill="#31bbfe" stroke="none" d="M333 394 c9 -10 -4 -34 -18 -34 -17 0
   -28 17 -20 30 7 11 28 13 38 4z"></path> 
    <path fill="#31bbfe" stroke="none" d="M419 314 c-10 -13 -15 -11 -36 7 -26
   26 -32 15 -6 -13 16 -18 14 -21 -28 -64 -56 -58 -76 -69 -95 -53 -26 21 -15
   43 59 117 l72 73 23 -27 c18 -21 20 -29 11 -40z"></path> 
    <path fill="#31bbfe" stroke="none" d="M503 373 c-7 -2 -21 -2 -30 0 -10 3 -4
   5 12 5 17 0 24 -2 18 -5z"></path> 
    <path fill="#31bbfe" stroke="none" d="M508 343 c-10 -2 -26 -2 -35 0 -10 3
   -2 5 17 5 19 0 27 -2 18 -5z"></path> 
    <path fill="#31bbfe" stroke="none" d="M510 310 c0 -5 -4 -10 -10 -10 -5 0
   -10 5 -10 10 0 6 5 10 10 10 6 0 10 -4 10 -10z"></path> 
    <path fill="#31bbfe" stroke="none" d="M510 280 c0 -5 -18 -10 -41 -10 -24 0
   -38 4 -34 10 3 6 22 10 41 10 19 0 34 -4 34 -10z"></path> 
    <path fill="#31bbfe" stroke="none" d="M498 210 c85 -27 194 -26 273 0 57 19
   79 19 79 1 0 -19 -141 -53 -217 -53 -76 1 -213 33 -213 51 0 6 10 21 14 21 1
   0 30 -9 64 -20z"></path> 
    <path fill="#000000" stroke="none" d="M818 939 c-37 -21 -9 -77 32 -64 22 7
   27 44 8 63 -14 14 -18 14 -40 1z"></path> 
    <path fill="#31bbfe" stroke="none" d="M858 907 c2 -12 -3 -17 -17 -17 -15 0
   -21 6 -21 21 0 25 33 22 38 -4z"></path> 
    <path fill="#000000" stroke="none" d="M586 779 c-103 -81 -52 -249 76 -249
   134 0 188 172 79 249 -40 29 -118 29 -155 0z"></path> 
    <path fill="#31bbfe" stroke="none" d="M655 715 c0 -27 -2 -50 -5 -50 -16 0
   -49 -47 -43 -61 4 -12 1 -15 -13 -12 -26 5 -42 53 -26 79 7 11 10 24 7 29 -10
   17 38 71 60 68 17 -3 20 -10 20 -53z"></path> 
    <path fill="#31bbfe" stroke="none" d="M739 740 c12 -17 19 -35 16 -40 -3 -5
   0 -18 7 -29 16 -26 0 -74 -26 -79 -15 -3 -18 0 -13 17 3 14 0 21 -9 21 -8 0
   -14 7 -14 15 0 9 -6 12 -16 8 -13 -5 -15 3 -13 48 2 30 5 57 7 62 8 17 40 5
   61 -23z"></path> 
    <path fill="#31bbfe" stroke="none" d="M660 625 c0 -8 -6 -15 -12 -15 -10 0
   -9 -3 1 -9 16 -10 6 -31 -15 -31 -17 0 -19 41 -2 58 16 16 28 15 28 -3z"></path> 
    <path fill="#31bbfe" stroke="none" d="M698 628 c7 -7 12 -23 12 -36 0 -38
   -34 -24 -37 16 -3 34 5 40 25 20z"></path> 
    <path fill="#000000" stroke="none" d="M620 745 c-11 -13 -10 -14 4 -9 9 3 16
   10 16 15 0 13 -6 11 -20 -6z"></path> 
    <path fill="#000000" stroke="none" d="M625 710 c-4 -6 -14 -9 -24 -5 -13 5
   -14 4 -3 -6 6 -7 13 -22 13 -33 1 -21 1 -21 6 -1 3 11 10 26 16 33 5 7 7 15 4
   18 -3 3 -8 0 -12 -6z"></path> 
    <path fill="#000000" stroke="none" d="M690 752 c0 -5 7 -15 15 -22 8 -7 15
   -8 15 -2 0 5 -7 15 -15 22 -8 7 -15 8 -15 2z"></path> 
    <path fill="#000000" stroke="none" d="M693 710 c4 -8 10 -23 13 -32 4 -10 11
   -18 16 -18 5 0 6 5 3 10 -4 6 -1 18 7 27 10 13 10 15 0 9 -7 -4 -20 -2 -29 6
   -14 11 -15 11 -10 -2z"></path> 
    <path fill="#000000" stroke="none" d="M900 805 c-14 -17 -7 -43 15 -51 15 -6
   45 11 45 27 0 4 -7 15 -16 23 -19 20 -28 20 -44 1z"></path> 
    <path fill="#31bbfe" stroke="none" d="M940 785 c0 -8 -7 -15 -15 -15 -8 0
   -15 7 -15 15 0 8 7 15 15 15 8 0 15 -7 15 -15z"></path> 
    <path fill="#000000" stroke="none" d="M880 560 c0 -5 5 -10 10 -10 6 0 10 5
   10 10 0 6 -4 10 -10 10 -5 0 -10 -4 -10 -10z"></path> 
    <path fill="#000000" stroke="none" d="M260 510 c0 -5 5 -10 10 -10 6 0 10 5
   10 10 0 6 -4 10 -10 10 -5 0 -10 -4 -10 -10z"></path> 
    <path fill="#000000" stroke="none" d="M300 510 c0 -5 5 -10 10 -10 6 0 10 5
   10 10 0 6 -4 10 -10 10 -5 0 -10 -4 -10 -10z"></path> 
    <path fill="#000000" stroke="none" d="M260 480 c0 -5 5 -10 10 -10 6 0 10 5
   10 10 0 6 -4 10 -10 10 -5 0 -10 -4 -10 -10z"></path> 
    <path fill="#000000" stroke="none" d="M300 480 c0 -5 5 -10 11 -10 5 0 7 5 4
   10 -3 6 -8 10 -11 10 -2 0 -4 -4 -4 -10z"></path> 
    <path fill="#000000" stroke="none" d="M580 355 l0 -85 73 1 c54 1 65 3 42 9
   l-30 8 28 1 c27 1 27 1 27 76 l0 75 -70 0 -70 0 0 -85z"></path> 
    <path fill="#31bbfe" stroke="none" d="M660 355 l0 -75 -35 0 -35 0 0 75 0 75
   35 0 35 0 0 -75z"></path> 
    <path fill="#31bbfe" stroke="none" d="M703 423 c-7 -2 -19 -2 -25 0 -7 3 -2
   5 12 5 14 0 19 -2 13 -5z"></path> 
    <path fill="#000000" stroke="none" d="M604 400 c0 -11 7 -20 16 -21 10 0 9
   -3 -5 -9 -19 -8 -19 -9 3 -9 18 -1 22 4 22 29 0 22 -5 30 -18 30 -11 0 -18 -7
   -18 -20z"></path> 
    <path fill="#000000" stroke="none" d="M605 320 c-3 -5 2 -10 12 -11 16 0 16
   -1 -2 -9 -19 -8 -19 -9 3 -9 16 -1 22 5 22 19 0 21 -24 28 -35 10z"></path> 
    <path fill="#000000" stroke="none" d="M370 429 c0 -5 5 -7 10 -4 6 3 10 8 10
   11 0 2 -4 4 -10 4 -5 0 -10 -5 -10 -11z"></path> 
    <path fill="#000000" stroke="none" d="M970 430 c0 -5 5 -10 11 -10 5 0 7 5 4
   10 -3 6 -8 10 -11 10 -2 0 -4 -4 -4 -10z"></path> 
   </g> 
   </svg>