<svg version="1.0" xmlns="http://www.w3.org/2000/svg" width="128.000000pt" height="128.000000pt" viewBox="0 0 128.000000 128.000000" preserveAspectRatio="xMidYMid meet" id="1196127693" class="svg u_1196127693" data-icon-custom="true" data-icon-name="Screenshot 2024-02-22 at 12.58.10.svg"> <metadata>Created by potrace 1.16, written by Peter Selinger 2001-2019</metadata> 
 <g transform="translate(0.000000,128.000000) scale(0.100000,-0.100000)" fill="#000000" stroke="none"> <path fill="#000000" stroke="none" d="M591 1121 c-25 -58 -28 -153 -6 -191
20 -34 19 -38 -12 -44 -40 -9 -116 -72 -163 -135 -22 -29 -40 -57 -40 -61 0
-35 108 -1 188 60 l53 41 -2 -144 c-1 -79 1 -149 5 -155 4 -6 13 -9 21 -5 12
4 15 32 15 155 l0 150 49 -36 c27 -20 75 -48 106 -62 50 -23 59 -25 72 -12 12
13 10 21 -22 64 -58 78 -146 144 -190 144 -19 0 -19 2 6 45 18 29 21 46 16 90
-6 64 -40 145 -60 145 -8 0 -24 -22 -36 -49z"></path> 
 <path fill="#31bbfe" stroke="none" d="M640 1014 c0 -36 -4 -64 -10 -64 -6 0
-10 30 -10 71 0 44 4 68 10 64 6 -3 10 -35 10 -71z"></path> 
 <path fill="#31bbfe" stroke="none" d="M586 831 c-24 -27 -140 -106 -135 -93
5 15 128 112 141 112 6 0 3 -9 -6 -19z"></path> 
 <path fill="#31bbfe" stroke="none" d="M744 798 c36 -29 63 -54 61 -57 -6 -6
-107 63 -130 89 -34 37 3 20 69 -32z"></path> 
 <path fill="#000000" stroke="none" d="M420 1077 c-113 -47 -223 -147 -274
-249 -31 -62 -33 -88 -8 -88 13 0 25 17 40 53 44 105 158 206 285 252 64 23
81 48 37 52 -14 2 -50 -7 -80 -20z"></path> 
 <path fill="#000000" stroke="none" d="M730 1086 c0 -9 12 -21 28 -28 158 -64
253 -142 307 -256 19 -39 36 -62 47 -62 29 0 29 16 -4 81 -62 125 -225 257
-341 276 -30 5 -37 3 -37 -11z"></path> 
 <path fill="#000000" stroke="none" d="M102 687 c-7 -8 -9 -17 -5 -20 3 -4 53
-7 110 -7 94 0 104 2 101 18 -3 14 -17 17 -99 20 -72 2 -99 -1 -107 -11z"></path> 
 <path fill="#000000" stroke="none" d="M957 693 c-4 -3 -7 -12 -7 -20 0 -10
23 -13 98 -13 103 0 119 4 101 27 -12 14 -179 20 -192 6z"></path> 
 <path fill="#000000" stroke="none" d="M686 681 c-7 -11 18 -33 27 -24 4 3 7
12 7 20 0 15 -26 18 -34 4z"></path> 
 <path fill="#000000" stroke="none" d="M99 604 c-17 -21 3 -34 51 -34 43 0 65
17 49 37 -16 18 -84 17 -100 -3z"></path> 
 <path fill="#000000" stroke="none" d="M382 608 c-8 -8 -9 -15 -1 -25 19 -22
79 -13 79 12 0 24 -57 34 -78 13z"></path> 
 <path fill="#000000" stroke="none" d="M693 604 c-7 -19 11 -39 26 -30 16 10
13 33 -4 40 -9 3 -18 -1 -22 -10z"></path> 
 <path fill="#000000" stroke="none" d="M802 608 c-8 -8 -9 -15 -1 -25 9 -10
51 -13 174 -13 136 0 165 3 176 16 10 13 10 17 -2 25 -22 14 -333 11 -347 -3z"></path> 
 <path fill="#000000" stroke="none" d="M272 593 c2 -10 10 -18 18 -18 22 0 18
29 -3 33 -14 3 -18 -1 -15 -15z"></path> 
 <path fill="#000000" stroke="none" d="M532 593 c2 -10 10 -18 18 -18 22 0 18
29 -3 33 -14 3 -18 -1 -15 -15z"></path> 
 <path fill="#000000" stroke="none" d="M107 524 c-4 -4 -7 -13 -7 -21 0 -10
31 -13 146 -13 133 0 145 1 142 18 -3 15 -19 17 -139 20 -74 1 -138 -1 -142
-4z"></path> 
 <path fill="#000000" stroke="none" d="M454 519 c-12 -20 12 -30 62 -27 37 2
50 7 52 21 3 14 -5 17 -52 17 -30 0 -58 -5 -62 -11z"></path> 
 <path fill="#000000" stroke="none" d="M685 520 c-12 -20 7 -30 59 -30 57 0
67 5 59 26 -6 17 -108 20 -118 4z"></path> 
 <path fill="#000000" stroke="none" d="M865 520 c-15 -24 12 -30 146 -30 128
0 140 2 137 18 -3 15 -19 17 -140 20 -86 2 -139 -1 -143 -8z"></path> 
 <path fill="#000000" stroke="none" d="M124 435 c-9 -23 54 -121 117 -185 101
-100 227 -150 381 -150 101 0 167 14 253 55 70 34 145 88 145 106 0 5 -81 9
-194 9 -164 0 -196 2 -207 16 -17 21 3 34 54 34 30 0 37 4 37 20 0 19 -7 20
-148 20 -82 0 -152 3 -155 7 -16 15 18 33 62 33 53 0 77 15 60 37 -9 10 -57
13 -206 13 -164 0 -195 -2 -199 -15z"></path> 
 <path fill="#000000" stroke="none" d="M802 438 c-8 -8 -9 -15 -1 -25 9 -10
48 -13 158 -13 150 0 178 6 168 34 -5 14 -28 16 -160 16 -104 0 -157 -4 -165
-12z"></path> 
 <path fill="#000000" stroke="none" d="M594 429 c-3 -6 -2 -15 4 -21 13 -13
32 -2 32 18 0 16 -26 19 -36 3z"></path> 
 <path fill="#000000" stroke="none" d="M694 429 c-8 -14 11 -33 25 -25 6 4 11
14 11 22 0 16 -26 19 -36 3z"></path> 
 <path fill="#000000" stroke="none" d="M783 344 c-7 -19 2 -28 22 -21 19 8 19
23 0 31 -9 3 -18 -1 -22 -10z"></path> 
 <path fill="#000000" stroke="none" d="M890 340 c0 -20 5 -21 92 -18 79 3 93
6 96 21 3 15 -6 17 -92 17 -90 0 -96 -1 -96 -20z"></path> 
</g> 
</svg>